<?xml version="1.0" encoding="UTF-8" standalone="no"?>
<!DOCTYPE svg PUBLIC "-//W3C//DTD SVG 1.1//EN"
 "http://www.w3.org/Graphics/SVG/1.1/DTD/svg11.dtd">
<!-- Generated by graphviz version 2.36.0 (20140111.2315)
 -->
<!-- Title: G Pages: 1 -->
<svg width="414pt" height="1966pt"
 viewBox="0.00 0.00 414.00 1966.00" xmlns="http://www.w3.org/2000/svg" xmlns:xlink="http://www.w3.org/1999/xlink">
<g id="graph0" class="graph" transform="scale(1 1) rotate(0) translate(4 1962)">
<title>G</title>
<polygon fill="white" stroke="none" points="-4,4 -4,-1962 410,-1962 410,4 -4,4"/>
<g id="clust1" class="cluster"><title>cluster_Global</title>
<path fill="none" stroke="gray" d="M20,-8C20,-8 386,-8 386,-8 392,-8 398,-14 398,-20 398,-20 398,-1938 398,-1938 398,-1944 392,-1950 386,-1950 386,-1950 20,-1950 20,-1950 14,-1950 8,-1944 8,-1938 8,-1938 8,-20 8,-20 8,-14 14,-8 20,-8"/>
<text text-anchor="middle" x="203" y="-1937.2" font-family="Times,serif" font-size="11.00" fill="gray">Global</text>
</g>
<g id="clust2" class="cluster"><title>cluster_\Apollo</title>
<path fill="none" stroke="gray" d="M28,-16C28,-16 378,-16 378,-16 384,-16 390,-22 390,-28 390,-28 390,-1910 390,-1910 390,-1916 384,-1922 378,-1922 378,-1922 28,-1922 28,-1922 22,-1922 16,-1916 16,-1910 16,-1910 16,-28 16,-28 16,-22 22,-16 28,-16"/>
<text text-anchor="middle" x="203" y="-1909.2" font-family="Times,serif" font-size="11.00" fill="gray">Apollo</text>
</g>
<g id="clust3" class="cluster"><title>cluster_\Apollo\Helpers</title>
<path fill="none" stroke="gray" d="M260,-1714C260,-1714 350,-1714 350,-1714 356,-1714 362,-1720 362,-1726 362,-1726 362,-1882 362,-1882 362,-1888 356,-1894 350,-1894 350,-1894 260,-1894 260,-1894 254,-1894 248,-1888 248,-1882 248,-1882 248,-1726 248,-1726 248,-1720 254,-1714 260,-1714"/>
<text text-anchor="middle" x="305" y="-1881.2" font-family="Times,serif" font-size="11.00" fill="gray">Helpers</text>
</g>
<g id="clust4" class="cluster"><title>cluster_\Apollo\Controllers</title>
<path fill="none" stroke="gray" d="M36,-1256C36,-1256 370,-1256 370,-1256 376,-1256 382,-1262 382,-1268 382,-1268 382,-1694 382,-1694 382,-1700 376,-1706 370,-1706 370,-1706 36,-1706 36,-1706 30,-1706 24,-1700 24,-1694 24,-1694 24,-1268 24,-1268 24,-1262 30,-1256 36,-1256"/>
<text text-anchor="middle" x="203" y="-1693.2" font-family="Times,serif" font-size="11.00" fill="gray">Controllers</text>
</g>
<g id="clust5" class="cluster"><title>cluster_\Apollo\Components</title>
<path fill="none" stroke="gray" d="M56,-582C56,-582 353,-582 353,-582 359,-582 365,-588 365,-594 365,-594 365,-1236 365,-1236 365,-1242 359,-1248 353,-1248 353,-1248 56,-1248 56,-1248 50,-1248 44,-1242 44,-1236 44,-1236 44,-594 44,-594 44,-588 50,-582 56,-582"/>
<text text-anchor="middle" x="204.5" y="-1235.2" font-family="Times,serif" font-size="11.00" fill="gray">Components</text>
</g>
<g id="clust6" class="cluster"><title>cluster_\Apollo\Entities</title>
<path fill="none" stroke="gray" d="M240,-70C240,-70 370,-70 370,-70 376,-70 382,-76 382,-82 382,-82 382,-562 382,-562 382,-568 376,-574 370,-574 370,-574 240,-574 240,-574 234,-574 228,-568 228,-562 228,-562 228,-82 228,-82 228,-76 234,-70 240,-70"/>
<text text-anchor="middle" x="305" y="-561.2" font-family="Times,serif" font-size="11.00" fill="gray">Entities</text>
</g>
<!-- \\Apollo\\Helpers\\AssetHelper -->
<g id="node1" class="node"><title>\\Apollo\\Helpers\\AssetHelper</title>
<polygon fill="none" stroke="black" points="350.5,-1866 259.5,-1866 259.5,-1830 350.5,-1830 350.5,-1866"/>
<text text-anchor="middle" x="305" y="-1845.2" font-family="Courier,monospace" font-size="11.00">AssetHelper</text>
</g>
<!-- \\Apollo\\Helpers\\URLHelper -->
<g id="node2" class="node"><title>\\Apollo\\Helpers\\URLHelper</title>
<polygon fill="none" stroke="black" points="343.5,-1812 266.5,-1812 266.5,-1776 343.5,-1776 343.5,-1812"/>
<text text-anchor="middle" x="305" y="-1791.2" font-family="Courier,monospace" font-size="11.00">URLHelper</text>
</g>
<!-- \\Apollo\\Helpers\\StringHelper -->
<g id="node3" class="node"><title>\\Apollo\\Helpers\\StringHelper</title>
<polygon fill="none" stroke="black" points="354,-1758 256,-1758 256,-1722 354,-1722 354,-1758"/>
<text text-anchor="middle" x="305" y="-1737.2" font-family="Courier,monospace" font-size="11.00">StringHelper</text>
</g>
<!-- \\Apollo\\Controllers\\GetController -->
<g id="node4" class="node"><title>\\Apollo\\Controllers\\GetController</title>
<polygon fill="none" stroke="black" points="357,-1678 253,-1678 253,-1642 357,-1642 357,-1678"/>
<text text-anchor="middle" x="305" y="-1657.2" font-family="Courier,monospace" font-size="11.00">GetController</text>
</g>
<!-- \\Apollo\\Controllers\\GenericController -->
<g id="node11" class="node"><title>\\Apollo\\Controllers\\GenericController</title>
<polygon fill="none" stroke="black" points="163.5,-1489 32.5,-1489 32.5,-1453 163.5,-1453 163.5,-1489"/>
<text text-anchor="start" x="64" y="-1474.2" font-family="Courier,monospace" font-size="11.00">«abstract»</text>
<text text-anchor="start" x="40.5" y="-1462.2" font-family="Courier,monospace" font-size="11.00">GenericController</text>
</g>
<!-- \\Apollo\\Controllers\\GetController&#45;&gt;\\Apollo\\Controllers\\GenericController -->
<g id="edge1" class="edge"><title>\\Apollo\\Controllers\\GetController&#45;&gt;\\Apollo\\Controllers\\GenericController</title>
<path fill="none" stroke="black" d="M252.981,-1646.33C244.218,-1642.76 235.522,-1638.37 228,-1633 176.556,-1596.29 134.935,-1533.61 113.905,-1497.93"/>
<polygon fill="none" stroke="black" points="116.805,-1495.96 108.768,-1489.05 110.746,-1499.46 116.805,-1495.96"/>
</g>
<!-- \\Apollo\\Controllers\\RecordController -->
<g id="node5" class="node"><title>\\Apollo\\Controllers\\RecordController</title>
<polygon fill="none" stroke="black" points="367.5,-1624 242.5,-1624 242.5,-1588 367.5,-1588 367.5,-1624"/>
<text text-anchor="middle" x="305" y="-1603.2" font-family="Courier,monospace" font-size="11.00">RecordController</text>
</g>
<!-- \\Apollo\\Controllers\\RecordController&#45;&gt;\\Apollo\\Controllers\\GenericController -->
<g id="edge2" class="edge"><title>\\Apollo\\Controllers\\RecordController&#45;&gt;\\Apollo\\Controllers\\GenericController</title>
<path fill="none" stroke="black" d="M246.17,-1587.93C239.891,-1585.24 233.714,-1582.27 228,-1579 188.011,-1556.15 148.341,-1520.47 123.77,-1496.44"/>
<polygon fill="none" stroke="black" points="126.213,-1493.93 116.645,-1489.38 121.287,-1498.91 126.213,-1493.93"/>
</g>
<!-- \\Apollo\\Controllers\\AssetController -->
<g id="node6" class="node"><title>\\Apollo\\Controllers\\AssetController</title>
<polygon fill="none" stroke="black" points="364,-1570 246,-1570 246,-1534 364,-1534 364,-1570"/>
<text text-anchor="middle" x="305" y="-1549.2" font-family="Courier,monospace" font-size="11.00">AssetController</text>
</g>
<!-- \\Apollo\\Controllers\\AssetController&#45;&gt;\\Apollo\\Controllers\\GenericController -->
<g id="edge3" class="edge"><title>\\Apollo\\Controllers\\AssetController&#45;&gt;\\Apollo\\Controllers\\GenericController</title>
<path fill="none" stroke="black" d="M251.939,-1533.93C243.896,-1531.02 235.706,-1527.98 228,-1525 202.126,-1515 173.651,-1503.17 150.051,-1493.13"/>
<polygon fill="none" stroke="black" points="151.165,-1489.8 140.594,-1489.1 148.417,-1496.24 151.165,-1489.8"/>
</g>
<!-- \\Apollo\\Controllers\\UserController -->
<g id="node7" class="node"><title>\\Apollo\\Controllers\\UserController</title>
<polygon fill="none" stroke="black" points="360.5,-1516 249.5,-1516 249.5,-1480 360.5,-1480 360.5,-1516"/>
<text text-anchor="middle" x="305" y="-1495.2" font-family="Courier,monospace" font-size="11.00">UserController</text>
</g>
<!-- \\Apollo\\Controllers\\UserController&#45;&gt;\\Apollo\\Controllers\\GenericController -->
<g id="edge4" class="edge"><title>\\Apollo\\Controllers\\UserController&#45;&gt;\\Apollo\\Controllers\\GenericController</title>
<path fill="none" stroke="black" d="M249.333,-1490.8C226.19,-1487.75 198.854,-1484.15 173.881,-1480.86"/>
<polygon fill="none" stroke="black" points="174.082,-1477.36 163.71,-1479.52 173.168,-1484.3 174.082,-1477.36"/>
</g>
<!-- \\Apollo\\Controllers\\HelpController -->
<g id="node8" class="node"><title>\\Apollo\\Controllers\\HelpController</title>
<polygon fill="none" stroke="black" points="360.5,-1462 249.5,-1462 249.5,-1426 360.5,-1426 360.5,-1462"/>
<text text-anchor="middle" x="305" y="-1441.2" font-family="Courier,monospace" font-size="11.00">HelpController</text>
</g>
<!-- \\Apollo\\Controllers\\HelpController&#45;&gt;\\Apollo\\Controllers\\GenericController -->
<g id="edge5" class="edge"><title>\\Apollo\\Controllers\\HelpController&#45;&gt;\\Apollo\\Controllers\\GenericController</title>
<path fill="none" stroke="black" d="M249.333,-1451.2C226.19,-1454.25 198.854,-1457.85 173.881,-1461.14"/>
<polygon fill="none" stroke="black" points="173.168,-1457.7 163.71,-1462.48 174.082,-1464.64 173.168,-1457.7"/>
</g>
<!-- \\Apollo\\Controllers\\ActivityController -->
<g id="node9" class="node"><title>\\Apollo\\Controllers\\ActivityController</title>
<polygon fill="none" stroke="black" points="374,-1408 236,-1408 236,-1372 374,-1372 374,-1408"/>
<text text-anchor="middle" x="305" y="-1387.2" font-family="Courier,monospace" font-size="11.00">ActivityController</text>
</g>
<!-- \\Apollo\\Controllers\\ActivityController&#45;&gt;\\Apollo\\Controllers\\GenericController -->
<g id="edge6" class="edge"><title>\\Apollo\\Controllers\\ActivityController&#45;&gt;\\Apollo\\Controllers\\GenericController</title>
<path fill="none" stroke="black" d="M251.939,-1408.07C243.896,-1410.98 235.706,-1414.02 228,-1417 202.126,-1427 173.651,-1438.83 150.051,-1448.87"/>
<polygon fill="none" stroke="black" points="148.417,-1445.76 140.594,-1452.9 151.165,-1452.2 148.417,-1445.76"/>
</g>
<!-- \\Apollo\\Controllers\\PostController -->
<g id="node10" class="node"><title>\\Apollo\\Controllers\\PostController</title>
<polygon fill="none" stroke="black" points="360.5,-1354 249.5,-1354 249.5,-1318 360.5,-1318 360.5,-1354"/>
<text text-anchor="middle" x="305" y="-1333.2" font-family="Courier,monospace" font-size="11.00">PostController</text>
</g>
<!-- \\Apollo\\Controllers\\PostController&#45;&gt;\\Apollo\\Controllers\\GenericController -->
<g id="edge7" class="edge"><title>\\Apollo\\Controllers\\PostController&#45;&gt;\\Apollo\\Controllers\\GenericController</title>
<path fill="none" stroke="black" d="M249.383,-1352.73C242.008,-1355.75 234.686,-1359.18 228,-1363 188.011,-1385.85 148.341,-1421.53 123.77,-1445.56"/>
<polygon fill="none" stroke="black" points="121.287,-1443.09 116.645,-1452.62 126.213,-1448.07 121.287,-1443.09"/>
</g>
<!-- \\Apollo\\Controllers\\FieldController -->
<g id="node12" class="node"><title>\\Apollo\\Controllers\\FieldController</title>
<polygon fill="none" stroke="black" points="364,-1300 246,-1300 246,-1264 364,-1264 364,-1300"/>
<text text-anchor="middle" x="305" y="-1279.2" font-family="Courier,monospace" font-size="11.00">FieldController</text>
</g>
<!-- \\Apollo\\Controllers\\FieldController&#45;&gt;\\Apollo\\Controllers\\GenericController -->
<g id="edge8" class="edge"><title>\\Apollo\\Controllers\\FieldController&#45;&gt;\\Apollo\\Controllers\\GenericController</title>
<path fill="none" stroke="black" d="M245.848,-1298.78C239.562,-1301.71 233.471,-1305.1 228,-1309 176.556,-1345.71 134.935,-1408.39 113.905,-1444.07"/>
<polygon fill="none" stroke="black" points="110.746,-1442.54 108.768,-1452.95 116.805,-1446.04 110.746,-1442.54"/>
</g>
<!-- \\Apollo\\Components\\View -->
<g id="node13" class="node"><title>\\Apollo\\Components\\View</title>
<polygon fill="none" stroke="black" points="332,-1220 278,-1220 278,-1184 332,-1184 332,-1220"/>
<text text-anchor="middle" x="305" y="-1199.2" font-family="Courier,monospace" font-size="11.00">View</text>
</g>
<!-- \\Apollo\\Components\\Session -->
<g id="node14" class="node"><title>\\Apollo\\Components\\Session</title>
<polygon fill="none" stroke="black" points="337,-1166 273,-1166 273,-1130 337,-1130 337,-1166"/>
<text text-anchor="middle" x="305" y="-1145.2" font-family="Courier,monospace" font-size="11.00">Session</text>
</g>
<!-- \\Apollo\\Components\\Person -->
<g id="node15" class="node"><title>\\Apollo\\Components\\Person</title>
<polygon fill="none" stroke="black" points="333.5,-1112 276.5,-1112 276.5,-1076 333.5,-1076 333.5,-1112"/>
<text text-anchor="middle" x="305" y="-1091.2" font-family="Courier,monospace" font-size="11.00">Person</text>
</g>
<!-- \\Apollo\\Components\\DBComponent -->
<g id="node22" class="node"><title>\\Apollo\\Components\\DBComponent</title>
<polygon fill="none" stroke="black" points="143.5,-896 52.5,-896 52.5,-860 143.5,-860 143.5,-896"/>
<text text-anchor="start" x="64" y="-881.2" font-family="Courier,monospace" font-size="11.00">«abstract»</text>
<text text-anchor="start" x="60.5" y="-869.2" font-family="Courier,monospace" font-size="11.00">DBComponent</text>
</g>
<!-- \\Apollo\\Components\\Person&#45;&gt;\\Apollo\\Components\\DBComponent -->
<g id="edge9" class="edge"><title>\\Apollo\\Components\\Person&#45;&gt;\\Apollo\\Components\\DBComponent</title>
<path fill="none" stroke="black" d="M276.284,-1088.61C260.9,-1084.59 242.085,-1077.86 228,-1067 170.879,-1022.98 129.902,-946.352 110.896,-905.498"/>
<polygon fill="none" stroke="black" points="113.974,-903.812 106.646,-896.161 107.603,-906.712 113.974,-903.812"/>
</g>
<!-- \\Apollo\\Components\\Record -->
<g id="node16" class="node"><title>\\Apollo\\Components\\Record</title>
<polygon fill="none" stroke="black" points="333.5,-1058 276.5,-1058 276.5,-1022 333.5,-1022 333.5,-1058"/>
<text text-anchor="middle" x="305" y="-1037.2" font-family="Courier,monospace" font-size="11.00">Record</text>
</g>
<!-- \\Apollo\\Components\\Record&#45;&gt;\\Apollo\\Components\\DBComponent -->
<g id="edge10" class="edge"><title>\\Apollo\\Components\\Record&#45;&gt;\\Apollo\\Components\\DBComponent</title>
<path fill="none" stroke="black" d="M276.205,-1033.5C261.155,-1029.18 242.691,-1022.51 228,-1013 182.433,-983.488 141.279,-934.815 118.264,-904.68"/>
<polygon fill="none" stroke="black" points="120.798,-902.226 111.992,-896.335 115.202,-906.432 120.798,-902.226"/>
</g>
<!-- \\Apollo\\Components\\ExcelExporter -->
<g id="node17" class="node"><title>\\Apollo\\Components\\ExcelExporter</title>
<polygon fill="none" stroke="black" points="357,-1004 253,-1004 253,-968 357,-968 357,-1004"/>
<text text-anchor="middle" x="305" y="-983.2" font-family="Courier,monospace" font-size="11.00">ExcelExporter</text>
</g>
<!-- \\Apollo\\Components\\Data -->
<g id="node18" class="node"><title>\\Apollo\\Components\\Data</title>
<polygon fill="none" stroke="black" points="332,-950 278,-950 278,-914 332,-914 332,-950"/>
<text text-anchor="middle" x="305" y="-929.2" font-family="Courier,monospace" font-size="11.00">Data</text>
</g>
<!-- \\Apollo\\Components\\Data&#45;&gt;\\Apollo\\Components\\DBComponent -->
<g id="edge11" class="edge"><title>\\Apollo\\Components\\Data&#45;&gt;\\Apollo\\Components\\DBComponent</title>
<path fill="none" stroke="black" d="M277.62,-925.051C246.416,-916.832 193.652,-902.933 153.54,-892.367"/>
<polygon fill="none" stroke="black" points="154.197,-888.92 143.635,-889.758 152.414,-895.689 154.197,-888.92"/>
</g>
<!-- \\Apollo\\Components\\User -->
<g id="node19" class="node"><title>\\Apollo\\Components\\User</title>
<polygon fill="none" stroke="black" points="332,-896 278,-896 278,-860 332,-860 332,-896"/>
<text text-anchor="middle" x="305" y="-875.2" font-family="Courier,monospace" font-size="11.00">User</text>
</g>
<!-- \\Apollo\\Components\\User&#45;&gt;\\Apollo\\Components\\DBComponent -->
<g id="edge12" class="edge"><title>\\Apollo\\Components\\User&#45;&gt;\\Apollo\\Components\\DBComponent</title>
<path fill="none" stroke="black" d="M277.62,-878C246.482,-878 193.876,-878 153.795,-878"/>
<polygon fill="none" stroke="black" points="153.635,-874.5 143.635,-878 153.635,-881.5 153.635,-874.5"/>
</g>
<!-- \\Apollo\\Components\\Field -->
<g id="node20" class="node"><title>\\Apollo\\Components\\Field</title>
<polygon fill="none" stroke="black" points="332,-842 278,-842 278,-806 332,-806 332,-842"/>
<text text-anchor="middle" x="305" y="-821.2" font-family="Courier,monospace" font-size="11.00">Field</text>
</g>
<!-- \\Apollo\\Components\\Field&#45;&gt;\\Apollo\\Components\\DBComponent -->
<g id="edge13" class="edge"><title>\\Apollo\\Components\\Field&#45;&gt;\\Apollo\\Components\\DBComponent</title>
<path fill="none" stroke="black" d="M277.62,-830.949C246.416,-839.168 193.652,-853.067 153.54,-863.633"/>
<polygon fill="none" stroke="black" points="152.414,-860.311 143.635,-866.242 154.197,-867.08 152.414,-860.311"/>
</g>
<!-- \\Apollo\\Components\\Activity -->
<g id="node21" class="node"><title>\\Apollo\\Components\\Activity</title>
<polygon fill="none" stroke="black" points="340.5,-788 269.5,-788 269.5,-752 340.5,-752 340.5,-788"/>
<text text-anchor="middle" x="305" y="-767.2" font-family="Courier,monospace" font-size="11.00">Activity</text>
</g>
<!-- \\Apollo\\Components\\Activity&#45;&gt;\\Apollo\\Components\\DBComponent -->
<g id="edge14" class="edge"><title>\\Apollo\\Components\\Activity&#45;&gt;\\Apollo\\Components\\DBComponent</title>
<path fill="none" stroke="black" d="M269.299,-780.539C256.107,-785.006 241.106,-790.652 228,-797 194.149,-813.395 158.093,-836.575 132.731,-853.94"/>
<polygon fill="none" stroke="black" points="130.462,-851.253 124.227,-859.819 134.443,-857.011 130.462,-851.253"/>
</g>
<!-- \\Apollo\\Components\\DB -->
<g id="node23" class="node"><title>\\Apollo\\Components\\DB</title>
<polygon fill="none" stroke="black" points="332,-734 278,-734 278,-698 332,-698 332,-734"/>
<text text-anchor="middle" x="305" y="-713.2" font-family="Courier,monospace" font-size="11.00">DB</text>
</g>
<!-- \\Apollo\\Components\\Request -->
<g id="node24" class="node"><title>\\Apollo\\Components\\Request</title>
<polygon fill="none" stroke="black" points="337,-680 273,-680 273,-644 337,-644 337,-680"/>
<text text-anchor="middle" x="305" y="-659.2" font-family="Courier,monospace" font-size="11.00">Request</text>
</g>
<!-- \\Apollo\\Components\\TargetGroup -->
<g id="node25" class="node"><title>\\Apollo\\Components\\TargetGroup</title>
<polygon fill="none" stroke="black" points="350.5,-626 259.5,-626 259.5,-590 350.5,-590 350.5,-626"/>
<text text-anchor="middle" x="305" y="-605.2" font-family="Courier,monospace" font-size="11.00">TargetGroup</text>
</g>
<!-- \\Apollo\\Components\\TargetGroup&#45;&gt;\\Apollo\\Components\\DBComponent -->
<g id="edge15" class="edge"><title>\\Apollo\\Components\\TargetGroup&#45;&gt;\\Apollo\\Components\\DBComponent</title>
<path fill="none" stroke="black" d="M259.236,-617.779C248.147,-621.766 236.904,-627.315 228,-635 159.136,-694.437 121.338,-799.931 106.497,-850.056"/>
<polygon fill="none" stroke="black" points="103.073,-849.297 103.675,-859.875 109.801,-851.231 103.073,-849.297"/>
</g>
<!-- \\Apollo\\Entities\\RecordEntity -->
<g id="node26" class="node"><title>\\Apollo\\Entities\\RecordEntity</title>
<polygon fill="none" stroke="black" points="354,-546 256,-546 256,-510 354,-510 354,-546"/>
<text text-anchor="middle" x="305" y="-525.2" font-family="Courier,monospace" font-size="11.00">RecordEntity</text>
</g>
<!-- \\Apollo\\Entities\\OrganisationEntity -->
<g id="node27" class="node"><title>\\Apollo\\Entities\\OrganisationEntity</title>
<polygon fill="none" stroke="black" points="374,-492 236,-492 236,-456 374,-456 374,-492"/>
<text text-anchor="middle" x="305" y="-471.2" font-family="Courier,monospace" font-size="11.00">OrganisationEntity</text>
</g>
<!-- \\Apollo\\Entities\\UserEntity -->
<g id="node28" class="node"><title>\\Apollo\\Entities\\UserEntity</title>
<polygon fill="none" stroke="black" points="347,-438 263,-438 263,-402 347,-402 347,-438"/>
<text text-anchor="middle" x="305" y="-417.2" font-family="Courier,monospace" font-size="11.00">UserEntity</text>
</g>
<!-- \\Apollo\\Entities\\ActivityEntity -->
<g id="node29" class="node"><title>\\Apollo\\Entities\\ActivityEntity</title>
<polygon fill="none" stroke="black" points="360.5,-384 249.5,-384 249.5,-348 360.5,-348 360.5,-384"/>
<text text-anchor="middle" x="305" y="-363.2" font-family="Courier,monospace" font-size="11.00">ActivityEntity</text>
</g>
<!-- \\Apollo\\Entities\\PersonEntity -->
<g id="node30" class="node"><title>\\Apollo\\Entities\\PersonEntity</title>
<polygon fill="none" stroke="black" points="354,-330 256,-330 256,-294 354,-294 354,-330"/>
<text text-anchor="middle" x="305" y="-309.2" font-family="Courier,monospace" font-size="11.00">PersonEntity</text>
</g>
<!-- \\Apollo\\Entities\\DefaultEntity -->
<g id="node31" class="node"><title>\\Apollo\\Entities\\DefaultEntity</title>
<polygon fill="none" stroke="black" points="357,-276 253,-276 253,-240 357,-240 357,-276"/>
<text text-anchor="middle" x="305" y="-255.2" font-family="Courier,monospace" font-size="11.00">DefaultEntity</text>
</g>
<!-- \\Apollo\\Entities\\TargetGroupEntity -->
<g id="node32" class="node"><title>\\Apollo\\Entities\\TargetGroupEntity</title>
<polygon fill="none" stroke="black" points="370.5,-222 239.5,-222 239.5,-186 370.5,-186 370.5,-222"/>
<text text-anchor="middle" x="305" y="-201.2" font-family="Courier,monospace" font-size="11.00">TargetGroupEntity</text>
</g>
<!-- \\Apollo\\Entities\\DataEntity -->
<g id="node33" class="node"><title>\\Apollo\\Entities\\DataEntity</title>
<polygon fill="none" stroke="black" points="347,-168 263,-168 263,-132 347,-132 347,-168"/>
<text text-anchor="middle" x="305" y="-147.2" font-family="Courier,monospace" font-size="11.00">DataEntity</text>
</g>
<!-- \\Apollo\\Entities\\FieldEntity -->
<g id="node34" class="node"><title>\\Apollo\\Entities\\FieldEntity</title>
<polygon fill="none" stroke="black" points="350.5,-114 259.5,-114 259.5,-78 350.5,-78 350.5,-114"/>
<text text-anchor="middle" x="305" y="-93.2" font-family="Courier,monospace" font-size="11.00">FieldEntity</text>
</g>
<!-- \\Apollo\\Apollo -->
<g id="node35" class="node"><title>\\Apollo\\Apollo</title>
<polygon fill="none" stroke="black" points="333.5,-60 276.5,-60 276.5,-24 333.5,-24 333.5,-60"/>
<text text-anchor="middle" x="305" y="-39.2" font-family="Courier,monospace" font-size="11.00">Apollo</text>
</g>
</g>
</svg>
